<?xml version="1.0" encoding="UTF-8"?><!DOCTYPE svg PUBLIC "-//W3C//DTD SVG 1.1//EN" "http://www.w3.org/Graphics/SVG/1.1/DTD/svg11.dtd"><svg xmlns="http://www.w3.org/2000/svg" xmlns:xlink="http://www.w3.org/1999/xlink"><symbol id="icon-call" viewBox="0 0 32 32"><g transform="translate(96 384)"><path d="M-65.224-359.142l-0.147-0.445c-0.353-1.045-1.504-2.135-2.563-2.422l-3.918-1.07c-1.063-0.289-2.578,0.1-3.354,0.877   l-1.418,1.418c-5.153-1.393-9.194-5.434-10.586-10.586l1.418-1.418c0.777-0.777,1.166-2.291,0.878-3.354l-1.068-3.92   c-0.289-1.063-1.381-2.214-2.424-2.563l-0.447-0.15c-1.045-0.348-2.535,0.004-3.313,0.781l-2.12,2.123   c-0.38,0.377-0.621,1.455-0.621,1.459c-0.074,6.734,2.565,13.225,7.33,17.986c4.752,4.752,11.216,7.389,17.931,7.332   c0.035,0,1.145-0.238,1.523-0.615l2.12-2.121C-65.228-356.604-64.875-358.097-65.224-359.142L-65.224-359.142z"/></g></symbol><symbol id="icon-down-arrow" viewBox="0 0 129 129">
  <g>
    <path d="m121.3,34.6c-1.6-1.6-4.2-1.6-5.8,0l-51,51.1-51.1-51.1c-1.6-1.6-4.2-1.6-5.8,0-1.6,1.6-1.6,4.2 0,5.8l53.9,53.9c0.8,0.8 1.8,1.2 2.9,1.2 1,0 2.1-0.4 2.9-1.2l53.9-53.9c1.7-1.6 1.7-4.2 0.1-5.8z"/>
  </g>
</symbol><symbol id="icon-envelope" viewBox="0 0 1792 1792"><path d="M1792 710v794q0 66-47 113t-113 47h-1472q-66 0-113-47t-47-113v-794q44 49 101 87 362 246 497 345 57 42 92.5 65.5t94.5 48 110 24.5h2q51 0 110-24.5t94.5-48 92.5-65.5q170-123 498-345 57-39 100-87zm0-294q0 79-49 151t-122 123q-376 261-468 325-10 7-42.5 30.5t-54 38-52 32.5-57.5 27-50 9h-2q-23 0-50-9t-57.5-27-52-32.5-54-38-42.5-30.5q-91-64-262-182.5t-205-142.5q-62-42-117-115.5t-55-136.5q0-78 41.5-130t118.5-52h1472q65 0 112.5 47t47.5 113z"/></symbol><symbol id="icon-lock" viewBox="0 0 512 512">
<g>
	<g>
		<path d="M437.333,192h-32v-42.667C405.333,66.99,338.344,0,256,0S106.667,66.99,106.667,149.333V192h-32
			C68.771,192,64,196.771,64,202.667v266.667C64,492.865,83.135,512,106.667,512h298.667C428.865,512,448,492.865,448,469.333
			V202.667C448,196.771,443.229,192,437.333,192z M287.938,414.823c0.333,3.01-0.635,6.031-2.656,8.292
			c-2.021,2.26-4.917,3.552-7.948,3.552h-42.667c-3.031,0-5.927-1.292-7.948-3.552c-2.021-2.26-2.99-5.281-2.656-8.292l6.729-60.51
			c-10.927-7.948-17.458-20.521-17.458-34.313c0-23.531,19.135-42.667,42.667-42.667s42.667,19.135,42.667,42.667
			c0,13.792-6.531,26.365-17.458,34.313L287.938,414.823z M341.333,192H170.667v-42.667C170.667,102.281,208.948,64,256,64
			s85.333,38.281,85.333,85.333V192z"/>
	</g>
</g>
<g>
</g>
<g>
</g>
<g>
</g>
<g>
</g>
<g>
</g>
<g>
</g>
<g>
</g>
<g>
</g>
<g>
</g>
<g>
</g>
<g>
</g>
<g>
</g>
<g>
</g>
<g>
</g>
<g>
</g>
</symbol><symbol id="icon-mail" viewBox="0 0 58 58">
<g>
	<g>
		<polygon style="fill:#DCD6CD;" points="0,5 0,44 28,44 56,44 56,5 		"/>
		<path style="fill:#E8E3D9;" d="M30.965,27.107c-1.637,1.462-4.292,1.462-5.93,0l-2.087-1.843C16.419,31.091,0,44,0,44h21.607
			h12.787H56c0,0-16.419-12.909-22.948-18.736L30.965,27.107z"/>
		<path style="fill:#EFEBDE;" d="M0,5l25.035,22.107c1.637,1.462,4.292,1.462,5.93,0L56,5H0z"/>
	</g>
	<g>
		<circle style="fill:#26B999;" cx="46" cy="41" r="12"/>
		<path style="fill:#FFFFFF;" d="M52.571,35.179c-0.455-0.316-1.077-0.204-1.392,0.25l-5.596,8.04l-3.949-3.242
			c-0.426-0.351-1.057-0.288-1.407,0.139c-0.351,0.427-0.289,1.057,0.139,1.407l4.786,3.929c0.18,0.147,0.404,0.227,0.634,0.227
			c0.045,0,0.091-0.003,0.137-0.009c0.276-0.039,0.524-0.19,0.684-0.419l6.214-8.929C53.136,36.118,53.024,35.495,52.571,35.179z"/>
	</g>
</g>
<g>
</g>
<g>
</g>
<g>
</g>
<g>
</g>
<g>
</g>
<g>
</g>
<g>
</g>
<g>
</g>
<g>
</g>
<g>
</g>
<g>
</g>
<g>
</g>
<g>
</g>
<g>
</g>
<g>
</g>
</symbol><symbol id="icon-sign-out" viewBox="0 0 447674 447674">
<g>
	<g>
		<path d="M182.725,379.151c-0.572-1.522-0.769-2.816-0.575-3.863c0.193-1.04-0.472-1.902-1.997-2.566
			c-1.525-0.664-2.286-1.191-2.286-1.567c0-0.38-1.093-0.667-3.284-0.855c-2.19-0.191-3.283-0.288-3.283-0.288h-3.71h-3.14H82.224
			c-12.562,0-23.317-4.469-32.264-13.421c-8.945-8.946-13.417-19.698-13.417-32.258V123.335c0-12.562,4.471-23.313,13.417-32.259
			c8.947-8.947,19.702-13.422,32.264-13.422h91.361c2.475,0,4.421-0.614,5.852-1.854c1.425-1.237,2.375-3.094,2.853-5.568
			c0.476-2.474,0.763-4.708,0.859-6.707c0.094-1.997,0.048-4.521-0.144-7.566c-0.189-3.044-0.284-4.947-0.284-5.712
			c0-2.474-0.905-4.611-2.712-6.423c-1.809-1.804-3.949-2.709-6.423-2.709H82.224c-22.648,0-42.016,8.042-58.101,24.125
			C8.042,81.323,0,100.688,0,123.338v200.994c0,22.648,8.042,42.018,24.123,58.095c16.085,16.091,35.453,24.133,58.101,24.133
			h91.365c2.475,0,4.422-0.622,5.852-1.854c1.425-1.239,2.375-3.094,2.853-5.571c0.476-2.471,0.763-4.716,0.859-6.707
			c0.094-1.999,0.048-4.518-0.144-7.563C182.818,381.817,182.725,379.915,182.725,379.151z"/>
		<path d="M442.249,210.989L286.935,55.67c-3.614-3.612-7.898-5.424-12.847-5.424c-4.949,0-9.233,1.812-12.851,5.424
			c-3.617,3.617-5.424,7.904-5.424,12.85v82.226H127.907c-4.952,0-9.233,1.812-12.85,5.424c-3.617,3.617-5.424,7.901-5.424,12.85
			v109.636c0,4.948,1.807,9.232,5.424,12.847c3.621,3.61,7.901,5.427,12.85,5.427h127.907v82.225c0,4.945,1.807,9.233,5.424,12.847
			c3.617,3.617,7.901,5.428,12.851,5.428c4.948,0,9.232-1.811,12.847-5.428L442.249,236.69c3.617-3.62,5.425-7.898,5.425-12.848
			C447.674,218.894,445.866,214.606,442.249,210.989z"/>
	</g>
</g>
<g>
</g>
<g>
</g>
<g>
</g>
<g>
</g>
<g>
</g>
<g>
</g>
<g>
</g>
<g>
</g>
<g>
</g>
<g>
</g>
<g>
</g>
<g>
</g>
<g>
</g>
<g>
</g>
<g>
</g>
</symbol><symbol id="icon-user" viewBox="0 0 63 58"><g><circle cx="31.5" cy="13.5" r="13.5"/><path d="M46.005,31h-29.01C9.182,36.436,3.059,46.132,0.048,58h62.904C59.941,46.132,53.818,36.436,46.005,31z"/></g></symbol></svg>